#Comment line ignore any data following # character 
#Hierarchical Translation and Rotation (.htr) file 
[Header]	
#Header keywords are followed by a single value 
FileType HTR		#Single word string
DataType HTRS		#Translation followed by rotation and scale data
FileVersion 1		#integer
NumSegments 84		#integer
NumFrames 2		#integer
DataFrameRate 30		#integer, data frame rate in this file
EulerRotationOrder ZYX
CalibrationUnits mm
RotationUnits Degrees
GlobalAxisofGravity Y
BoneLengthAxis Y
ScaleFactor 1.00
[SegmentNames&Hierarchy]
#CHILD	PARENT
MASTER GLOBAL
root MASTER
chest root
L_mid_tent01 root
R_mid_tent01 root
spine01 root
Bip01_Neck chest
L_humerus chest
R_humerus chest
weapon_bone chest
Bip01_Head Bip01_Neck
eye_left_bone Bip01_Head
eye_right_bone Bip01_Head
L_forearm L_humerus
L_front_hand L_forearm
L_weapon_bone L_forearm
L_front_hand01_01 L_front_hand
L_front_hand02_01 L_front_hand
L_front_hand03_01 L_front_hand
L_front_hand01_02 L_front_hand01_01
L_front_hand02_02 L_front_hand02_01
L_front_hand03_02 L_front_hand03_01
R_forearm R_humerus
R_front_hand R_forearm
R_weapon_bone R_forearm
R_front_hand01_01 R_front_hand
R_front_hand02_01 R_front_hand
R_front_hand03_01 R_front_hand
R_front_hand01_02 R_front_hand01_01
R_front_hand02_02 R_front_hand02_01
R_front_hand03_02 R_front_hand03_01
null_rope01_connect L_mid_tent01
Rope1_Seg01 null_rope01_connect
Rope1_Seg02 Rope1_Seg01
Rope1_Seg03 Rope1_Seg02
Rope1_Seg04 Rope1_Seg03
Rope1_Seg05 Rope1_Seg04
Rope1_Seg06 Rope1_Seg05
Rope1_Seg07 Rope1_Seg06
Rope1_Seg09 Rope1_Seg07
L_mid_hand01 Rope1_Seg09
L_mid_hand02 Rope1_Seg09
L_mid_hand03 Rope1_Seg09
null_rope02_connect R_mid_tent01
Rope2_Seg01 null_rope02_connect
Rope2_Seg02 Rope2_Seg01
Rope2_Seg03 Rope2_Seg02
Rope2_Seg04 Rope2_Seg03
Rope2_Seg05 Rope2_Seg04
Rope2_Seg06 Rope2_Seg05
Rope2_Seg07 Rope2_Seg06
Rope2_Seg09 Rope2_Seg07
R_mid_hand01 Rope2_Seg09
R_mid_hand02 Rope2_Seg09
R_mid_hand03 Rope2_Seg09
spine02 spine01
spine03 spine02
pelvis spine03
null_rope03_connect pelvis
null_rope04_connect pelvis
Rope3_Seg01 null_rope03_connect
Rope3_Seg02 Rope3_Seg01
Rope3_Seg03 Rope3_Seg02
Rope3_Seg04 Rope3_Seg03
Rope3_Seg05 Rope3_Seg04
Rope3_Seg06 Rope3_Seg05
Rope3_Seg07 Rope3_Seg06
Rope3_Seg08 Rope3_Seg07
Rope3_Seg09 Rope3_Seg08
R_rear_hand01 Rope3_Seg09
R_rear_hand02 Rope3_Seg09
R_rear_hand03 Rope3_Seg09
Rope4_Seg01 null_rope04_connect
Rope4_Seg02 Rope4_Seg01
Rope4_Seg03 Rope4_Seg02
Rope4_Seg04 Rope4_Seg03
Rope4_Seg05 Rope4_Seg04
Rope4_Seg06 Rope4_Seg05
Rope4_Seg07 Rope4_Seg06
Rope4_Seg08 Rope4_Seg07
Rope4_Seg09 Rope4_Seg08
L_rear_hand01 Rope4_Seg09
L_rear_hand02 Rope4_Seg09
L_rear_hand03 Rope4_Seg09
[BasePosition]
#SegmentName Tx, Ty, Tz, Rx, Ry, Rz, BoneLength
MASTER 0.000000 0.000000 0.000000 -90.000000 0.000000 0.000000 10.000000 
root 0.000000 0.000000 0.000000 0.000000 0.000000 0.000000 10.000000 
chest 0.000000 0.000000 0.000000 0.000000 0.000000 0.000000 10.000000 
L_mid_tent01 0.000000 0.000000 0.000000 0.000000 0.000000 0.000000 10.000000 
R_mid_tent01 0.000000 0.000000 0.000000 0.000000 0.000000 0.000000 10.000000 
spine01 0.000000 0.000000 0.000000 0.000000 0.000000 0.000000 10.000000 
Bip01_Neck 0.000000 0.000000 0.000000 0.000000 0.000000 0.000000 10.000000 
L_humerus 0.000000 0.000000 0.000000 0.000000 0.000000 0.000000 10.000000 
R_humerus 0.000000 0.000000 0.000000 0.000000 0.000000 0.000000 10.000000 
weapon_bone 0.000000 0.000000 0.000000 0.000000 0.000000 0.000000 10.000000 
Bip01_Head 0.000000 0.000000 0.000000 0.000000 0.000000 0.000000 10.000000 
eye_left_bone 0.000000 0.000000 0.000000 0.000000 0.000000 0.000000 10.000000 
eye_right_bone 0.000000 0.000000 0.000000 0.000000 0.000000 0.000000 10.000000 
L_forearm 0.000000 0.000000 0.000000 0.000000 0.000000 0.000000 10.000000 
L_front_hand 0.000000 0.000000 0.000000 0.000000 0.000000 0.000000 10.000000 
L_weapon_bone 0.000000 0.000000 0.000000 0.000000 0.000000 0.000000 10.000000 
L_front_hand01_01 0.000000 0.000000 0.000000 0.000000 0.000000 0.000000 10.000000 
L_front_hand02_01 0.000000 0.000000 0.000000 0.000000 0.000000 0.000000 10.000000 
L_front_hand03_01 0.000000 0.000000 0.000000 0.000000 0.000000 0.000000 10.000000 
L_front_hand01_02 0.000000 0.000000 0.000000 0.000000 0.000000 0.000000 10.000000 
L_front_hand02_02 0.000000 0.000000 0.000000 0.000000 0.000000 0.000000 10.000000 
L_front_hand03_02 0.000000 0.000000 0.000000 0.000000 0.000000 0.000000 10.000000 
R_forearm 0.000000 0.000000 0.000000 0.000000 0.000000 0.000000 10.000000 
R_front_hand 0.000000 0.000000 0.000000 0.000000 0.000000 0.000000 10.000000 
R_weapon_bone 0.000000 0.000000 0.000000 0.000000 0.000000 0.000000 10.000000 
R_front_hand01_01 0.000000 0.000000 0.000000 0.000000 0.000000 0.000000 10.000000 
R_front_hand02_01 0.000000 0.000000 0.000000 0.000000 0.000000 0.000000 10.000000 
R_front_hand03_01 0.000000 0.000000 0.000000 0.000000 0.000000 0.000000 10.000000 
R_front_hand01_02 0.000000 0.000000 0.000000 0.000000 0.000000 0.000000 10.000000 
R_front_hand02_02 0.000000 0.000000 0.000000 0.000000 0.000000 0.000000 10.000000 
R_front_hand03_02 0.000000 0.000000 0.000000 0.000000 0.000000 0.000000 10.000000 
null_rope01_connect 0.000000 0.000000 0.000000 0.000000 0.000000 0.000000 10.000000 
Rope1_Seg01 0.000000 0.000000 0.000000 0.000000 0.000000 0.000000 10.000000 
Rope1_Seg02 0.000000 0.000000 0.000000 0.000000 0.000000 0.000000 10.000000 
Rope1_Seg03 0.000000 0.000000 0.000000 0.000000 0.000000 0.000000 10.000000 
Rope1_Seg04 0.000000 0.000000 0.000000 0.000000 0.000000 0.000000 10.000000 
Rope1_Seg05 0.000000 0.000000 0.000000 0.000000 0.000000 0.000000 10.000000 
Rope1_Seg06 0.000000 0.000000 0.000000 0.000000 0.000000 0.000000 10.000000 
Rope1_Seg07 0.000000 0.000000 0.000000 0.000000 0.000000 0.000000 10.000000 
Rope1_Seg09 0.000000 0.000000 0.000000 0.000000 0.000000 0.000000 10.000000 
L_mid_hand01 0.000000 0.000000 0.000000 0.000000 0.000000 0.000000 10.000000 
L_mid_hand02 0.000000 0.000000 0.000000 0.000000 0.000000 0.000000 10.000000 
L_mid_hand03 0.000000 0.000000 0.000000 0.000000 0.000000 0.000000 10.000000 
null_rope02_connect 0.000000 0.000000 0.000000 0.000000 0.000000 0.000000 10.000000 
Rope2_Seg01 0.000000 0.000000 0.000000 0.000000 0.000000 0.000000 10.000000 
Rope2_Seg02 0.000000 0.000000 0.000000 0.000000 0.000000 0.000000 10.000000 
Rope2_Seg03 0.000000 0.000000 0.000000 0.000000 0.000000 0.000000 10.000000 
Rope2_Seg04 0.000000 0.000000 0.000000 0.000000 0.000000 0.000000 10.000000 
Rope2_Seg05 0.000000 0.000000 0.000000 0.000000 0.000000 0.000000 10.000000 
Rope2_Seg06 0.000000 0.000000 0.000000 0.000000 0.000000 0.000000 10.000000 
Rope2_Seg07 0.000000 0.000000 0.000000 0.000000 0.000000 0.000000 10.000000 
Rope2_Seg09 0.000000 0.000000 0.000000 0.000000 0.000000 0.000000 10.000000 
R_mid_hand01 0.000000 0.000000 0.000000 0.000000 0.000000 0.000000 10.000000 
R_mid_hand02 0.000000 0.000000 0.000000 0.000000 0.000000 0.000000 10.000000 
R_mid_hand03 0.000000 0.000000 0.000000 0.000000 0.000000 0.000000 10.000000 
spine02 0.000000 0.000000 0.000000 0.000000 0.000000 0.000000 10.000000 
spine03 0.000000 0.000000 0.000000 0.000000 0.000000 0.000000 10.000000 
pelvis 0.000000 0.000000 0.000000 0.000000 0.000000 0.000000 10.000000 
null_rope03_connect 0.000000 0.000000 0.000000 0.000000 0.000000 0.000000 10.000000 
null_rope04_connect 0.000000 0.000000 0.000000 0.000000 0.000000 0.000000 10.000000 
Rope3_Seg01 0.000000 0.000000 0.000000 0.000000 0.000000 0.000000 10.000000 
Rope3_Seg02 0.000000 0.000000 0.000000 0.000000 0.000000 0.000000 10.000000 
Rope3_Seg03 0.000000 0.000000 0.000000 0.000000 0.000000 0.000000 10.000000 
Rope3_Seg04 0.000000 0.000000 0.000000 0.000000 0.000000 0.000000 10.000000 
Rope3_Seg05 0.000000 0.000000 0.000000 0.000000 0.000000 0.000000 10.000000 
Rope3_Seg06 0.000000 0.000000 0.000000 0.000000 0.000000 0.000000 10.000000 
Rope3_Seg07 0.000000 0.000000 0.000000 0.000000 0.000000 0.000000 10.000000 
Rope3_Seg08 0.000000 0.000000 0.000000 0.000000 0.000000 0.000000 10.000000 
Rope3_Seg09 0.000000 0.000000 0.000000 0.000000 0.000000 0.000000 10.000000 
R_rear_hand01 0.000000 0.000000 0.000000 0.000000 0.000000 0.000000 10.000000 
R_rear_hand02 0.000000 0.000000 0.000000 0.000000 0.000000 0.000000 10.000000 
R_rear_hand03 0.000000 0.000000 0.000000 0.000000 0.000000 0.000000 10.000000 
Rope4_Seg01 0.000000 0.000000 0.000000 0.000000 0.000000 0.000000 10.000000 
Rope4_Seg02 0.000000 0.000000 0.000000 0.000000 0.000000 0.000000 10.000000 
Rope4_Seg03 0.000000 0.000000 0.000000 0.000000 0.000000 0.000000 10.000000 
Rope4_Seg04 0.000000 0.000000 0.000000 0.000000 0.000000 0.000000 10.000000 
Rope4_Seg05 0.000000 0.000000 0.000000 0.000000 0.000000 0.000000 10.000000 
Rope4_Seg06 0.000000 0.000000 0.000000 0.000000 0.000000 0.000000 10.000000 
Rope4_Seg07 0.000000 0.000000 0.000000 0.000000 0.000000 0.000000 10.000000 
Rope4_Seg08 0.000000 0.000000 0.000000 0.000000 0.000000 0.000000 10.000000 
Rope4_Seg09 0.000000 0.000000 0.000000 0.000000 0.000000 0.000000 10.000000 
L_rear_hand01 0.000000 0.000000 0.000000 0.000000 0.000000 0.000000 10.000000 
L_rear_hand02 0.000000 0.000000 0.000000 0.000000 0.000000 0.000000 10.000000 
L_rear_hand03 0.000000 0.000000 0.000000 0.000000 0.000000 0.000000 10.000000 
#Beginning of Data. Separated by tabs
#Fr	Tx	Ty	Tz	Rx	Ry	Rz	SF
[MASTER]
39 0.000000 0.000000 0.000000 0.001660 0.001660 0.001660 0.000000
40 0.000000 0.000000 0.000000 0.001660 0.001660 0.001660 0.000000
[root]
39 21.882650 -52.352455 1578.987915 -107.625969 13.925612 -87.298988 1580.007080
40 14.676633 -52.399761 1583.997314 -107.657341 14.190021 -87.394341 1584.931885
[chest]
39 -86.836601 -33.005978 -30.127235 2.076212 -8.923643 174.108322 97.660843
40 -86.836601 -33.005978 -30.127234 1.573973 -8.985363 174.782593 97.660843
[L_mid_tent01]
39 27.299488 22.177580 -249.918289 -5.185060 18.640369 77.237602 252.381180
40 27.299488 22.177580 -249.918289 -5.093968 17.922434 77.272560 252.381180
[R_mid_tent01]
39 23.228794 24.509907 226.238495 -176.025513 -17.233374 65.533699 228.744751
40 23.228794 24.509907 226.238495 -176.032730 -16.955902 65.556396 228.744751
[spine01]
39 -0.361383 -0.195265 0.000000 -0.000001 -0.000007 22.052340 0.410763
40 -0.361383 -0.195265 0.000000 -0.000001 -0.000007 22.052340 0.410763
[Bip01_Neck]
39 165.484543 71.581718 0.000119 175.896118 1.177290 24.871183 180.302734
40 165.484543 71.581718 0.000119 175.896118 1.177290 24.871183 180.302734
[L_humerus]
39 -13.983130 -135.272980 -120.471481 -168.517593 36.033756 -113.483017 181.680161
40 -13.983130 -135.272980 -120.471481 -168.517593 36.033756 -113.483017 181.680161
[R_humerus]
39 -13.983309 -135.273102 125.287651 -179.588654 -28.895130 -122.030510 184.909012
40 -13.983309 -135.273102 125.287651 -179.588654 -28.895136 -122.030510 184.909012
[weapon_bone]
39 235.964890 -300.705902 0.000000 0.000000 -89.951546 -128.212341 382.234833
40 235.964890 -300.705902 0.000000 0.000000 -89.951546 -128.212341 382.234833
[Bip01_Head]
39 189.519867 179.130280 22.124910 -23.626308 5.787232 14.654977 261.715393
40 189.519867 179.130280 22.124910 -23.626301 5.787230 14.654975 261.715393
[eye_left_bone]
39 -24.626970 125.451866 -64.772606 0.000000 -90.000000 -99.840431 143.318359
40 -24.626970 125.451866 -64.772606 0.000000 -90.000000 -99.840431 143.318359
[eye_right_bone]
39 -24.626970 125.451866 64.327362 0.000000 -89.965736 80.156380 143.117676
40 -24.626970 125.451866 64.327362 0.000000 -89.965736 80.156380 143.117676
[L_forearm]
39 322.776093 0.000000 -0.000119 0.000017 0.002347 -89.149834 322.776093
40 322.776093 0.000000 -0.000119 0.000017 0.002347 -89.149834 322.776093
[L_front_hand]
39 241.149185 -0.042021 -3.300071 49.347107 -2.241849 -0.021115 241.171753
40 241.149185 -0.042021 -3.300071 48.667530 -2.242366 -0.018869 241.171753
[L_weapon_bone]
39 156.183838 0.000000 0.000000 0.000014 0.000007 0.000001 156.183838
40 156.183838 0.000000 0.000000 0.000014 0.000007 0.000001 156.183838
[L_front_hand01_01]
39 86.095154 20.947098 -0.655860 -0.366594 -0.477154 75.385574 88.609184
40 86.095154 20.947098 -0.655860 -0.366594 -0.477154 75.385574 88.609184
[L_front_hand02_01]
39 86.935165 -11.437475 24.513514 154.399796 -59.883835 -61.369587 91.046425
40 86.935165 -11.437475 24.513514 154.399796 -59.883835 -61.369587 91.046425
[L_front_hand03_01]
39 86.637497 -14.123976 -20.424902 -153.913849 58.118122 -62.702866 90.126129
40 86.637497 -14.123976 -20.424902 -153.913879 58.118130 -62.702892 90.126129
[L_front_hand01_02]
39 71.020905 -0.000179 0.000030 0.000334 -0.002323 -106.379684 71.020905
40 71.020905 -0.000179 0.000030 0.000334 -0.002323 -106.379684 71.020905
[L_front_hand02_02]
39 71.020927 -0.000119 0.000060 0.000334 -0.002323 -106.379684 71.020927
40 71.020927 -0.000119 0.000060 0.000334 -0.002323 -106.379684 71.020927
[L_front_hand03_02]
39 71.020905 -0.000060 0.000060 0.000334 -0.002323 -106.379684 71.020905
40 71.020905 -0.000060 0.000060 0.000334 -0.002323 -106.379684 71.020905
[R_forearm]
39 322.776428 -0.000060 0.000030 0.213197 0.007525 -93.425262 322.776428
40 322.776428 -0.000060 0.000030 0.213197 0.007525 -93.425262 322.776428
[R_front_hand]
39 238.847015 -0.006795 2.210259 -0.270529 1.703932 2.322530 238.857239
40 238.847015 -0.006795 2.210259 -0.270529 1.703932 2.322530 238.857239
[R_weapon_bone]
39 155.664093 0.002503 -0.000030 0.003487 0.001180 -90.988930 155.664078
40 155.664093 0.002503 -0.000030 0.003487 0.001180 -90.988930 155.664078
[R_front_hand01_01]
39 87.624611 14.231146 22.918642 -154.633499 -59.950619 61.746044 91.683487
40 87.624611 14.231146 22.918642 -154.633514 -59.950634 61.746063 91.683487
[R_front_hand02_01]
39 89.356956 14.367283 -19.491137 154.602661 58.302849 63.744389 92.579636
40 89.356956 14.367283 -19.491137 154.602661 58.302849 63.744389 92.579636
[R_front_hand03_01]
39 87.286232 -22.307278 -0.143439 0.162155 -0.423168 -75.767921 90.091743
40 87.286232 -22.307278 -0.143439 0.162155 -0.423168 -75.767921 90.091743
[R_front_hand01_02]
39 71.020905 0.000060 0.000119 0.002323 -0.000334 106.381714 71.020905
40 71.020905 0.000060 0.000119 0.002323 -0.000334 106.381714 71.020905
[R_front_hand02_02]
39 71.020844 -0.000030 -0.000119 0.002323 -0.000334 106.381714 71.020836
40 71.020844 -0.000030 -0.000119 0.002323 -0.000334 106.381714 71.020836
[R_front_hand03_02]
39 71.020905 0.000000 0.000030 0.002323 -0.000334 106.381714 71.020905
40 71.020905 0.000000 0.000030 0.002323 -0.000334 106.381714 71.020905
[null_rope01_connect]
39 328.732483 0.000000 -0.000238 160.996658 -52.260059 -162.307465 328.732483
40 328.732483 0.000000 -0.000238 160.622833 -52.955826 -162.248154 328.732483
[Rope1_Seg01]
39 0.000000 0.000000 0.000000 -62.876789 73.089874 -59.443260 0.000000
40 0.000000 0.000000 0.000000 -66.103844 72.301018 -63.027859 0.000000
[Rope1_Seg02]
39 139.999863 -0.000179 0.000000 0.381988 1.246132 -2.328864 139.999863
40 139.999863 -0.000179 0.000000 0.317129 1.169776 -2.047784 139.999863
[Rope1_Seg03]
39 139.999924 0.000060 -0.000060 0.620618 1.716548 -3.273841 139.999924
40 139.999924 0.000060 -0.000060 0.500832 1.607240 -2.860418 139.999924
[Rope1_Seg04]
39 139.999924 -0.000060 -0.000119 3.231184 1.599725 -7.256650 139.999924
40 139.999924 -0.000060 -0.000119 2.535285 1.318451 -5.779686 139.999924
[Rope1_Seg05]
39 139.999832 0.000119 -0.000060 -1.822975 6.017206 -4.815834 139.999832
40 139.999832 0.000119 -0.000060 -1.791866 6.052676 -4.854474 139.999832
[Rope1_Seg06]
39 139.999954 0.000119 -0.000060 -5.470510 4.015630 1.806437 139.999954
40 139.999954 0.000119 -0.000060 -4.177240 3.965739 0.248173 139.999954
[Rope1_Seg07]
39 139.999985 0.000060 0.000000 -1.862755 1.797688 0.026847 139.999985
40 139.999985 0.000060 0.000000 -1.518726 1.811303 -0.427987 139.999985
[Rope1_Seg09]
39 121.602913 0.000119 -0.000089 -89.793175 -1.359789 0.847147 121.602913
40 121.602913 0.000119 -0.000089 -89.793175 -1.359789 0.847147 121.602913
[L_mid_hand01]
39 103.859421 1.038730 8.195221 106.855484 -31.239275 -9.461397 104.187431
40 103.859421 1.038730 8.195221 106.855484 -31.239275 -9.461397 104.187431
[L_mid_hand02]
39 105.572853 -4.139662 -10.864139 -142.331345 25.752670 -28.774628 106.211075
40 105.572853 -4.139662 -10.864139 -142.331345 25.752670 -28.774628 106.211075
[L_mid_hand03]
39 104.641464 17.579376 -3.913581 -16.122810 9.734291 34.223598 106.179977
40 104.641464 17.579376 -3.913581 -16.122810 9.734291 34.223598 106.179977
[null_rope02_connect]
39 328.732849 0.000179 -0.000119 -95.215538 83.908669 75.387199 328.732849
40 328.732849 0.000179 -0.000119 -92.593964 84.058228 78.262238 328.732849
[Rope2_Seg01]
39 0.000076 0.000111 0.000153 146.648682 84.256729 -98.366005 0.000204
40 0.000076 0.000111 0.000153 146.684845 84.707169 -98.477921 0.000204
[Rope2_Seg02]
39 139.999741 -0.000060 -0.000119 -3.384264 8.240436 5.127200 139.999756
40 139.999741 -0.000060 -0.000119 -3.359285 8.267252 5.148131 139.999756
[Rope2_Seg03]
39 140.000107 0.000030 0.000000 -6.423964 10.956908 8.296185 140.000107
40 140.000107 0.000030 0.000000 -6.406709 11.054214 8.357892 140.000107
[Rope2_Seg04]
39 139.999802 0.000000 -0.000060 -8.903666 10.495845 10.022996 139.999802
40 139.999802 0.000000 -0.000060 -8.973225 10.659740 10.165700 139.999802
[Rope2_Seg05]
39 139.999985 -0.000060 0.000119 3.369555 -0.976478 -4.282359 139.999985
40 139.999985 -0.000060 0.000119 3.256791 -0.899425 -4.178048 139.999985
[Rope2_Seg06]
39 139.999893 -0.000030 -0.000119 2.331523 -0.985054 -2.818603 139.999893
40 139.999893 -0.000030 -0.000119 2.250069 -0.919252 -2.742337 139.999893
[Rope2_Seg07]
39 139.999893 0.000060 -0.000060 0.650114 -0.067258 -0.928534 139.999893
40 139.999893 0.000060 -0.000060 0.601949 -0.025020 -0.883770 139.999893
[Rope2_Seg09]
39 121.338966 0.000089 -0.000060 33.793236 -1.359788 -0.847141 121.338966
40 121.338966 0.000089 -0.000060 33.793236 -1.359788 -0.847141 121.338966
[R_mid_hand01]
39 104.680779 11.144459 -10.335981 -41.523792 25.424656 28.595957 105.778534
40 104.680779 11.144459 -10.335981 -41.523792 25.424656 28.595957 105.778534
[R_mid_hand02]
39 104.070427 2.443552 8.231699 72.847389 -32.746803 10.013901 104.424065
40 104.070427 2.443552 8.231699 72.847389 -32.746803 10.013901 104.424065
[R_mid_hand03]
39 106.028137 -11.221827 -5.996406 -167.901306 10.259192 -37.009720 106.788818
40 106.028137 -11.221827 -5.996406 -167.901306 10.259192 -37.009720 106.788818
[spine02]
39 129.756927 0.001550 0.000119 -0.245322 -4.052060 -4.355547 129.756927
40 129.756927 0.001550 0.000119 -0.245322 -4.052060 -4.355547 129.756927
[spine03]
39 78.613846 0.087372 -4.898873 0.207411 -2.089716 -0.432471 78.766380
40 78.613846 0.087372 -4.898873 0.207411 -2.089716 -0.432471 78.766380
[pelvis]
39 169.435242 0.051022 0.000000 -0.010007 -0.191417 -1.897554 169.435257
40 169.435242 0.051022 0.000000 -0.010007 -0.191417 -1.897554 169.435257
[null_rope03_connect]
39 -1.257226 -2.466202 137.391083 138.141800 -71.453781 -78.048592 137.418976
40 -1.257226 -2.466202 137.391083 138.144226 -71.479706 -78.327515 137.418976
[null_rope04_connect]
39 -1.259640 -2.480268 -137.844437 138.141800 -71.453781 -78.048592 137.872513
40 -1.259640 -2.480268 -137.844437 138.144226 -71.479706 -78.327515 137.872513
[Rope3_Seg01]
39 0.000000 0.000000 0.000000 -155.981812 69.482925 -93.635857 0.000000
40 0.000000 0.000000 0.000000 -157.106354 70.218262 -94.519760 0.000000
[Rope3_Seg02]
39 139.999924 -0.000119 0.000060 3.252066 7.854116 -5.430940 139.999924
40 139.999924 -0.000119 0.000060 3.306312 7.932383 -5.311079 139.999924
[Rope3_Seg03]
39 139.999924 -0.000119 0.000119 5.543333 15.605681 -8.819756 139.999924
40 139.999924 -0.000119 0.000119 5.625820 15.483930 -8.678076 139.999924
[Rope3_Seg04]
39 139.999924 0.000119 0.000000 2.910440 6.630931 -8.167363 139.999924
40 139.999924 0.000119 0.000000 3.328611 7.839480 -8.611589 139.999924
[Rope3_Seg05]
39 139.999924 -0.000238 0.000060 -7.614243 -26.886511 8.273644 139.999924
40 139.999924 -0.000238 0.000060 -7.777908 -26.427633 8.167403 139.999924
[Rope3_Seg06]
39 139.999893 -0.000119 -0.000060 -0.661075 -11.770798 1.894608 139.999893
40 139.999893 -0.000119 -0.000060 -0.833158 -12.061093 1.969695 139.999893
[Rope3_Seg07]
39 139.999771 0.000060 -0.000119 0.400199 -5.752487 0.642643 139.999771
40 139.999771 0.000060 -0.000119 0.345558 -5.828912 0.637750 139.999771
[Rope3_Seg08]
39 139.999985 -0.000060 0.000000 0.589235 -3.255112 0.390637 139.999985
40 139.999985 -0.000060 0.000000 0.559799 -3.304412 0.376392 139.999985
[Rope3_Seg09]
39 90.185997 -0.000179 -0.000060 89.793228 -1.359877 -0.847183 90.185997
40 90.185997 -0.000179 -0.000060 89.793228 -1.359877 -0.847183 90.185997
[R_rear_hand01]
39 103.366196 -6.073594 -10.757982 -161.551193 16.666374 -30.088671 104.101845
40 103.366196 -6.073594 -10.757982 -161.551193 16.666374 -30.088671 104.101845
[R_rear_hand02]
39 100.509819 12.039542 -7.992327 -34.280552 19.289745 28.875523 101.543350
40 100.509819 12.039542 -7.992327 -34.280552 19.289745 28.875523 101.543350
[R_rear_hand03]
39 101.539970 5.215704 5.435467 83.366440 -30.933914 7.284830 101.819031
40 101.539970 5.215704 5.435467 83.366440 -30.933914 7.284830 101.819031
[Rope4_Seg01]
39 0.000010 0.000038 -0.000114 27.544609 62.035728 -134.063889 0.000121
40 0.000010 0.000038 -0.000114 26.015903 61.330032 -135.797699 0.000121
[Rope4_Seg02]
39 139.999985 0.000060 0.000119 0.114468 5.057974 5.355217 139.999985
40 139.999985 0.000060 0.000119 0.173859 5.323104 5.725606 139.999985
[Rope4_Seg03]
39 139.999924 0.000000 -0.000238 -0.321004 5.641504 6.833179 139.999924
40 139.999924 0.000000 -0.000238 -0.325219 5.967830 7.428481 139.999924
[Rope4_Seg04]
39 139.999985 0.000000 0.000119 -0.496133 4.841417 4.981928 139.999985
40 139.999985 0.000000 0.000119 -0.522856 5.151903 5.302101 139.999985
[Rope4_Seg05]
39 139.999802 -0.000060 -0.000119 1.297439 0.970531 -2.980133 139.999802
40 139.999802 -0.000060 -0.000119 1.494198 1.242995 -3.361010 139.999802
[Rope4_Seg06]
39 139.999924 0.000000 0.000060 0.821597 0.760500 -1.664668 139.999924
40 139.999924 0.000000 0.000060 0.921565 0.955946 -1.796026 139.999924
[Rope4_Seg07]
39 139.999802 0.000000 0.000000 0.560140 0.762322 -0.805740 139.999802
40 139.999802 0.000000 0.000000 0.627719 0.891934 -0.903512 139.999802
[Rope4_Seg08]
39 139.999924 0.000000 0.000119 -1.172772 0.490860 -0.527643 139.999924
40 139.999924 0.000000 0.000119 -1.127277 0.571282 -0.585942 139.999924
[Rope4_Seg09]
39 90.185791 0.000060 0.000060 -135.617828 2.228885 0.850567 90.185791
40 90.185791 0.000060 0.000060 -135.617828 2.228885 0.850567 90.185791
[L_rear_hand01]
39 101.696655 -8.392275 -7.654577 -34.454281 -18.946800 151.655121 102.329041
40 101.696655 -8.392275 -7.654577 -34.454281 -18.946800 151.655121 102.329041
[L_rear_hand02]
39 102.726799 -1.568258 5.773216 83.407906 30.330435 172.796509 102.900848
40 102.726799 -1.568258 5.773216 83.407906 30.330435 172.796509 102.900848
[L_rear_hand03]
39 104.552910 9.721220 -10.420293 -161.379868 -16.473232 -150.512238 105.519653
40 104.552910 9.721220 -10.420293 -161.379868 -16.473232 -150.512238 105.519653
